<svg width="20" height="20" viewBox="0 0 20 20" fill="none" xmlns="http://www.w3.org/2000/svg">
<path d="M17.875 0H2.125C0.953 0 0 0.996667 0 2.22222V17.7778C0 19.0033 0.953 20 2.125 20H17.875C19.047 20 20 19.0033 20 17.7778V2.22222C20 0.996667 19.047 0 17.875 0ZM17.875 17.7778H2.125C2.068 17.7778 2.029 17.76 2.012 17.76C2.005 17.76 2.001 17.7622 2 17.7689L1.988 2.27333C1.995 2.26222 2.04 2.22222 2.125 2.22222H17.875C17.954 2.22333 17.997 2.25333 18 2.23111L18.012 17.7267C18.005 17.7378 17.96 17.7778 17.875 17.7778Z" fill="black"/>
<path d="M4 4.44443H10V11.1111H4V4.44443ZM11 13.3333H4V15.5555H16V13.3333H12H11ZM12 8.88888H16V11.1111H12V8.88888ZM12 4.44443H16V6.66666H12V4.44443Z" fill="black"/>
</svg>
